# xmcd CD database file
#
# Track frame offsets:
#	150
#	12434
#	25371
#	38226
#	51619
#	64206
#	76732
#	88524
#	101001
#	113689
#
# Disc length: 1675 seconds
#
# Revision: 0
# Processed by: cddbd v1.5.2PL0 Copyright (c) Steve Scherf et al.
# Submitted via: CDex 1.70beta2
#
DISCID=7d06890a
DTITLE=Hank Williams - The Very Best Of Hank Williams - v3
DYEAR=1900
DGENRE=Country
TTITLE0=Your Cheatin' Heart
TTITLE1=I'm So Lonesome I Could Cry
TTITLE2=Rootie Tootie
TTITLE3=Jambalaya (On The Bayou)
TTITLE4=Last Night I Heard You Cryin' In Your Sleep
TTITLE5=The Blues Come Around
TTITLE6=Dear John
TTITLE7=Cold Cold Heart
TTITLE8=Love Sick Blues
TTITLE9=I'm Satisfied With You
EXTD=
EXTT0=
EXTT1=
EXTT2=
EXTT3=
EXTT4=
EXTT5=
EXTT6=
EXTT7=
EXTT8=
EXTT9=
PLAYORDER=
